<svg width="16" height="16" viewBox="0 0 16 16" fill="none" xmlns="http://www.w3.org/2000/svg">
<path d="M9.95945 3.45967C10.2115 3.16919 10.4037 2.83179 10.5249 2.46683C10.6462 2.10188 10.6942 1.71656 10.6661 1.33301C9.89237 1.39547 9.17412 1.75938 8.66612 2.34634C8.42285 2.62766 8.2385 2.95493 8.12399 3.30877C8.00948 3.66261 7.96713 4.03584 7.99945 4.40634C8.37688 4.40949 8.74997 4.32574 9.08985 4.16158C9.42973 3.99742 9.72727 3.75726 9.95945 3.45967ZM11.6395 8.41967C11.6439 7.90883 11.7785 7.40755 12.0304 6.96314C12.2824 6.51873 12.6434 6.14585 13.0795 5.87967C12.8043 5.48317 12.4405 5.15623 12.0169 4.92479C11.5934 4.69335 11.1218 4.56378 10.6395 4.54634C9.59945 4.43967 8.63945 5.15301 8.08612 5.15301C7.53279 5.15301 6.75279 4.55967 5.88612 4.57301C5.31954 4.59167 4.76747 4.75686 4.28375 5.05246C3.80003 5.34807 3.40119 5.76399 3.12612 6.25967C1.95279 8.29967 2.82612 11.333 3.99945 12.9797C4.53279 13.7863 5.19945 14.6997 6.07945 14.6663C6.95945 14.633 7.24612 14.1197 8.26612 14.1197C9.28612 14.1197 9.59945 14.6663 10.4661 14.6463C11.3328 14.6263 11.9461 13.8197 12.5061 13.013C12.9028 12.4274 13.2127 11.7874 13.4261 11.113C12.8978 10.8877 12.447 10.5125 12.1295 10.0339C11.812 9.55523 11.6416 8.99406 11.6395 8.41967Z" fill="black"/>
</svg>
