<svg width="16" height="16" viewBox="0 0 16 16" fill="none" xmlns="http://www.w3.org/2000/svg">
<path d="M3.44266 2.97333C3.56942 2.73014 3.76044 2.52635 3.99493 2.38413C4.22942 2.2419 4.49841 2.16669 4.77266 2.16666H11.2267C11.5009 2.16669 11.7699 2.2419 12.0044 2.38413C12.2389 2.52635 12.4299 2.73014 12.5567 2.97333L13.964 5.67C14.1024 5.93515 14.1585 6.23564 14.1248 6.53286C14.0912 6.83008 13.9695 7.11047 13.7753 7.338L8.37999 13.658C8.33305 13.7129 8.27478 13.757 8.20918 13.7872C8.14358 13.8174 8.07222 13.833 7.99999 13.833C7.92777 13.833 7.8564 13.8174 7.79081 13.7872C7.72521 13.757 7.66693 13.7129 7.61999 13.658L2.22466 7.338C2.03038 7.11054 1.90854 6.83019 1.87481 6.53296C1.84107 6.23574 1.89697 5.93521 2.03533 5.67L3.44266 2.97333ZM4.62933 3.18733L6.02133 5.50533L7.42599 3.16666H4.77266C4.72417 3.167 4.67594 3.17396 4.62933 3.18733ZM6.90533 5.97533H9.09399L7.99933 4.15333L6.90533 5.97533ZM10.352 6.97533L9.06066 11.3207L12.77 6.97533H10.352ZM6.93866 11.3207L5.64799 6.97533H3.22933L6.93866 11.3207ZM6.69066 6.97533L7.99999 11.38L9.30866 6.97533H6.69066ZM12.004 4.07533L10.8627 5.97533H12.9953L12.004 4.07533ZM11.226 3.16666H8.57266L9.97733 5.50533L11.37 3.18733C11.3232 3.1739 11.2747 3.16694 11.226 3.16666ZM5.13666 5.97533L3.99533 4.07533L3.00399 5.97533H5.13666Z" fill="white"/>
</svg>
