<svg width="24" height="24" viewBox="0 0 24 24" fill="none" xmlns="http://www.w3.org/2000/svg">
<path d="M20.25 10.5V19.5C20.25 19.8978 20.092 20.2793 19.8107 20.5606C19.5294 20.8419 19.1478 21 18.75 21H5.25C4.85218 21 4.47064 20.8419 4.18934 20.5606C3.90804 20.2793 3.75 19.8978 3.75 19.5V10.5C3.75 10.1021 3.90804 9.72062 4.18934 9.43931C4.47064 9.15801 4.85218 8.99997 5.25 8.99997H7.5C7.69891 8.99997 7.88968 9.07899 8.03033 9.21964C8.17098 9.36029 8.25 9.55106 8.25 9.74997C8.25 9.94888 8.17098 10.1396 8.03033 10.2803C7.88968 10.421 7.69891 10.5 7.5 10.5H5.25V19.5H18.75V10.5H16.5C16.3011 10.5 16.1103 10.421 15.9697 10.2803C15.829 10.1396 15.75 9.94888 15.75 9.74997C15.75 9.55106 15.829 9.36029 15.9697 9.21964C16.1103 9.07899 16.3011 8.99997 16.5 8.99997H18.75C19.1478 8.99997 19.5294 9.15801 19.8107 9.43931C20.092 9.72062 20.25 10.1021 20.25 10.5ZM8.781 6.53172L11.25 4.06122V12.75C11.25 12.9489 11.329 13.1396 11.4697 13.2803C11.6103 13.421 11.8011 13.5 12 13.5C12.1989 13.5 12.3897 13.421 12.5303 13.2803C12.671 13.1396 12.75 12.9489 12.75 12.75V4.06122L15.2197 6.53097C15.3605 6.6717 15.5514 6.75076 15.7504 6.75076C15.9494 6.75076 16.1403 6.6717 16.281 6.53097C16.4217 6.39024 16.5008 6.19937 16.5008 6.00035C16.5008 5.80132 16.4217 5.61045 16.281 5.46972L12.531 1.71972C12.4613 1.64999 12.3786 1.59467 12.2876 1.55693C12.1965 1.51918 12.0989 1.49976 12.0004 1.49976C11.9018 1.49976 11.8042 1.51918 11.7132 1.55693C11.6221 1.59467 11.5394 1.64999 11.4698 1.71972L7.71975 5.46972C7.57902 5.61045 7.49996 5.80132 7.49996 6.00035C7.49996 6.19937 7.57902 6.39024 7.71975 6.53097C7.86048 6.6717 8.05135 6.75076 8.25037 6.75076C8.4494 6.75076 8.64027 6.67245 8.781 6.53172Z" fill="#0D0D0D"/>
</svg>
