<svg width="24" height="24" viewBox="0 0 24 24" fill="none" xmlns="http://www.w3.org/2000/svg">
<path fill-rule="evenodd" clip-rule="evenodd" d="M10.116 19.9523C10.566 20.2553 10.9425 20.4915 11.2072 20.6528C11.3392 20.733 11.556 20.859 11.6295 20.9017C11.8575 21.0292 12.1395 21.0315 12.3675 20.904C12.444 20.859 12.663 20.7315 12.7927 20.6528C14.3537 19.6985 15.8252 18.605 17.1893 17.3857C19.554 15.2572 22.125 12.1575 22.125 8.625C22.125 7.44441 21.7535 6.29375 21.0632 5.336C20.3729 4.37826 19.3988 3.66199 18.2788 3.28866C17.1588 2.91532 15.9497 2.90385 14.8228 3.25586C13.6959 3.60787 12.7084 4.30553 12 5.25C11.2916 4.30553 10.3041 3.60787 9.17719 3.25586C8.0503 2.90385 6.84122 2.91532 5.72122 3.28866C4.60121 3.66199 3.62707 4.37826 2.93676 5.336C2.24646 6.29375 1.875 7.44441 1.875 8.625C1.875 12.1575 4.446 15.2572 6.81075 17.385C7.85217 18.3157 8.95654 19.1735 10.116 19.9523ZM9.43875 4.98375C8.81019 4.64906 8.10569 4.48278 7.39381 4.50112C6.68193 4.51945 5.98692 4.72176 5.37642 5.08836C4.76592 5.45497 4.26072 5.97337 3.90999 6.59313C3.55927 7.21289 3.37496 7.91288 3.375 8.625C3.375 11.4675 5.4915 14.1803 7.81425 16.2705C9.11287 17.4311 10.5138 18.4719 12 19.38C13.4862 18.4722 14.8872 17.4317 16.1857 16.2712C18.5085 14.1803 20.625 11.4675 20.625 8.625C20.625 7.6714 20.2945 6.74727 19.6899 6.00983C19.0853 5.27239 18.2439 4.76721 17.3088 4.58023C16.3737 4.39324 15.4028 4.53601 14.5611 4.98425C13.7194 5.43248 13.059 6.15849 12.6923 7.03875C12.6353 7.17539 12.5392 7.29212 12.416 7.37423C12.2928 7.45634 12.148 7.50015 12 7.50015C11.852 7.50015 11.7072 7.45634 11.584 7.37423C11.4608 7.29212 11.3647 7.17539 11.3077 7.03875C10.9411 6.15828 10.2806 5.43208 9.43875 4.98375Z" fill="#0D0D0D"/>
</svg>
