<svg width="32" height="29" viewBox="0 0 32 29" fill="none" xmlns="http://www.w3.org/2000/svg">
<path d="M25.6995 0L24.6094 0.315L15.9604 2.7765L14.9062 3.09375L15.1178 3.86662L6.99525 1.51087L5.90625 1.19475L5.59013 2.28487L2.4255 13.0421C2.043 14.3741 1.81012 15.9649 2.25 17.5072C2.6055 18.756 3.49875 19.9552 4.887 20.6719L3.86662 24.3619L0.63225 23.4135L0 25.5938L8.649 28.089L9.28125 25.9099L6.04688 24.9604L7.06612 21.3041C7.77089 21.3643 8.48052 21.28 9.15157 21.0564C9.82263 20.8328 10.441 20.4745 10.9688 20.0036C12.1646 18.9315 12.8363 17.5028 13.2188 16.1707L15.9964 6.8895L18.2812 15.012V15.0458C18.6637 16.3778 19.3365 17.8065 20.5312 18.8786C21.5066 19.7528 22.869 20.2804 24.4339 20.1443L25.4531 23.8354L22.2188 24.7849L22.8521 26.964L31.5 24.4688L30.8666 22.2885L27.6322 23.238L26.5781 19.5457C27.9664 18.8302 28.8585 17.6299 29.2151 16.3822C29.6539 14.8399 29.457 13.2491 29.0745 11.9171L26.0156 1.089L25.6995 0ZM24.1875 2.77537L25.5938 7.80412H18.5625L17.6839 4.6395L24.1875 2.77537ZM7.45312 4.00725L13.9219 5.83537L13.0072 8.92912H5.976L7.45312 4.00725ZM19.1959 10.0541H26.2271L26.9303 12.5505C27.2329 13.5968 27.3386 14.8399 27.0709 15.7849C26.802 16.7299 26.2924 17.3936 24.9255 17.7885C23.5586 18.1845 22.7722 17.8808 22.0432 17.226C21.3131 16.5713 20.7292 15.4598 20.4255 14.4135L19.1959 10.0541ZM5.30888 11.1791H12.3401L11.0745 15.5385H11.0396C10.7359 16.5848 10.1869 17.6963 9.45675 18.351C8.72775 19.0058 7.94137 19.3095 6.5745 18.9135C5.20762 18.5175 4.698 17.8549 4.42912 16.9099C4.16137 15.9649 4.26712 14.7206 4.56975 13.6755L5.30888 11.1791Z" fill="black"/>
</svg>
