<svg width="16" height="16" viewBox="0 0 16 16" fill="none" xmlns="http://www.w3.org/2000/svg">
<path d="M9.15141 2.29613L10.3246 4.66193C10.4846 4.99126 10.9112 5.30714 11.2712 5.36763L13.3976 5.72384C14.7575 5.95236 15.0775 6.94708 14.0975 7.92834L12.4444 9.59514C12.1644 9.87741 12.0111 10.4218 12.0977 10.8117L12.5711 12.875C12.9443 14.5082 12.0844 15.14 10.6513 14.2864L8.65814 13.0968C8.29821 12.8817 7.70494 12.8817 7.33827 13.0968L5.34519 14.2864C3.91867 15.14 3.05211 14.5015 3.4254 12.875L3.89868 10.8117C3.98533 10.4218 3.83202 9.87741 3.55205 9.59514L1.8989 7.92834C0.925674 6.94708 1.23897 5.95236 2.59882 5.72384L4.72525 5.36763C5.07855 5.30714 5.50517 4.99126 5.66515 4.66193L6.83834 2.29613C7.47827 1.01242 8.51814 1.01242 9.15141 2.29613Z" stroke="#E49D12" stroke-linecap="round" stroke-linejoin="round"/>
</svg>
