<svg width="20" height="20" viewBox="0 0 20 20" fill="none" xmlns="http://www.w3.org/2000/svg">
<path d="M11.439 2.87014L12.9055 5.82739C13.1055 6.23905 13.6388 6.6339 14.0888 6.70951L16.7468 7.15478C18.4466 7.44043 18.8466 8.68382 17.6217 9.9104L15.5553 11.9939C15.2053 12.3467 15.0137 13.0272 15.1219 13.5146L15.7136 16.0937C16.1802 18.1352 15.1053 18.925 13.3138 17.858L10.8224 16.371C10.3725 16.1022 9.63093 16.1022 9.1726 16.371L6.68124 17.858C4.8981 18.925 3.81489 18.1268 4.28151 16.0937L4.87311 13.5146C4.98142 13.0272 4.78978 12.3467 4.43981 11.9939L2.37338 9.9104C1.15685 8.68382 1.54847 7.44043 3.24828 7.15478L5.90632 6.70951C6.34794 6.6339 6.88122 6.23905 7.08119 5.82739L8.54768 2.87014C9.3476 1.2655 10.6474 1.2655 11.439 2.87014Z" fill="#E49D12"/>
</svg>
