<svg width="120" height="120" viewBox="0 0 120 120" fill="none" xmlns="http://www.w3.org/2000/svg">
<g clip-path="url(#clip0_642_18194)">
<path d="M60 0C26.9169 0 0 26.9169 0 60C0 93.0831 26.9169 120 60 120C93.0831 120 120 93.0831 120 60C120 26.9169 93.0831 0 60 0ZM110.769 60C110.769 60.1477 110.751 60.2862 110.746 60.4338C97.0154 56.22 84.7385 55.92 73.98 58.02C72.7827 54.9792 71.5162 51.9661 70.1815 48.9831C81.2776 44.1599 91.3527 37.2661 99.8677 28.6708C106.928 37.5871 110.77 48.6268 110.769 60ZM93.5354 21.9831C85.2185 30.4569 75.7477 36.4015 66.1754 40.5231C58.7908 25.8554 51.6969 16.2138 47.2292 10.9246C51.3185 9.85385 55.5831 9.23077 60 9.23077C72.8585 9.23077 84.5769 14.0723 93.5354 21.9831ZM37.9385 14.3446C41.2292 17.9354 49.0615 27.4246 57.4246 43.8046C37.3892 50.2985 18.3923 49.8185 10.4123 49.2046C13.7585 33.8169 24.1108 21.0554 37.9385 14.3446ZM9.23077 60C9.23077 59.46 9.29538 58.9385 9.31385 58.4077C11.9585 58.6431 15.6923 58.8692 20.2708 58.8692C30.8908 58.8692 45.9046 57.5908 61.5046 52.3108C62.6631 54.8769 63.8123 57.5815 64.9523 60.42C42.9046 67.8831 28.4585 84.8354 22.1308 93.6923C13.8298 84.4325 9.2366 72.4358 9.23077 60ZM28.8692 100.015C33.9138 92.4508 47.0538 75.6785 68.1462 68.8708C72.5646 81.3154 76.0421 94.0744 78.5492 107.04L79.5554 106.846C71.2627 110.318 62.1942 111.515 53.2846 110.314C44.3751 109.114 35.9471 105.558 28.8692 100.015ZM87.0831 102.868C84.6172 90.6092 81.3172 78.5335 77.2062 66.7246C86.7415 65.1923 97.6062 65.8015 109.791 69.8354C108.442 76.5928 105.734 83.0056 101.83 88.684C97.9264 94.3625 92.9091 99.1881 87.0831 102.868Z" fill="#34A853"/>
</g>
<defs>
<clipPath id="clip0_642_18194">
<rect width="120" height="120" fill="white"/>
</clipPath>
</defs>
</svg>
