<svg width="24" height="24" viewBox="0 0 24 24" fill="none" xmlns="http://www.w3.org/2000/svg">
<mask id="path-1-inside-1_1139_24127" fill="white">
<path d="M11.98 19.094C11.786 19.094 11.5937 19.0587 11.403 18.988C11.2123 18.918 11.0447 18.8103 10.9 18.665L9.752 17.63C7.972 16.0133 6.402 14.441 5.042 12.913C3.68067 11.3857 3 9.798 3 8.15C3 6.878 3.432 5.81 4.296 4.946C5.16 4.082 6.228 3.65 7.5 3.65C8.22933 3.65 8.989 3.83433 9.779 4.203C10.569 4.57167 11.3093 5.267 12 6.289C12.6913 5.267 13.4317 4.57167 14.221 4.203C15.0103 3.83433 15.77 3.65 16.5 3.65C17.772 3.65 18.84 4.082 19.704 4.946C20.568 5.81 21 6.878 21 8.15C21 9.836 20.2917 11.4567 18.875 13.012C17.4583 14.5673 15.9077 16.108 14.223 17.634L13.081 18.665C12.9357 18.8103 12.7647 18.918 12.568 18.988C12.3713 19.058 12.1757 19.0933 11.981 19.094"/>
</mask>
<path d="M11.403 18.988L11.7505 18.0503L11.7476 18.0493L11.403 18.988ZM10.9 18.665L11.6087 17.9595L11.5897 17.9404L11.5696 17.9223L10.9 18.665ZM9.752 17.63L9.07967 18.3703L9.08239 18.3727L9.752 17.63ZM5.042 12.913L5.78898 12.2482L5.78851 12.2476L5.042 12.913ZM7.5 3.65V4.65V3.65ZM12 6.289L11.1715 6.84893L11.9996 8.07436L12.8283 6.8493L12 6.289ZM16.5 3.65V4.65V3.65ZM14.223 17.634L14.8931 18.3763L14.8943 18.3751L14.223 17.634ZM13.081 18.665L12.4109 17.9227L12.3919 17.9398L12.3739 17.9579L13.081 18.665ZM11.98 19.094V18.094C11.9103 18.094 11.8354 18.0818 11.7505 18.0503L11.403 18.988L11.0555 19.9257C11.352 20.0356 11.6617 20.094 11.98 20.094V19.094ZM11.403 18.988L11.7476 18.0493C11.6952 18.03 11.6515 18.0025 11.6087 17.9595L10.9 18.665L10.1913 19.3705C10.4378 19.6182 10.7294 19.806 11.0584 19.9267L11.403 18.988ZM10.9 18.665L11.5696 17.9223L10.4216 16.8873L9.752 17.63L9.08239 18.3727L10.2304 19.4077L10.9 18.665ZM9.752 17.63L10.4243 16.8897C8.66612 15.2929 7.12179 13.7456 5.78898 12.2482L5.042 12.913L4.29502 13.5779C5.6822 15.1364 7.27788 16.7338 9.07967 18.3703L9.752 17.63ZM5.042 12.913L5.78851 12.2476C4.54942 10.8574 4 9.49726 4 8.15H3H2C2 10.0987 2.81192 11.9139 4.29549 13.5784L5.042 12.913ZM3 8.15H4C4 7.13108 4.33505 6.32116 5.00311 5.65311L4.296 4.946L3.58889 4.23889C2.52895 5.29884 2 6.62492 2 8.15H3ZM4.296 4.946L5.00311 5.65311C5.67116 4.98505 6.48108 4.65 7.5 4.65V3.65V2.65C5.97492 2.65 4.64884 3.17895 3.58889 4.23889L4.296 4.946ZM7.5 3.65V4.65C8.05746 4.65 8.67302 4.79041 9.35611 5.10918L9.779 4.203L10.2019 3.29682C9.30498 2.87826 8.40121 2.65 7.5 2.65V3.65ZM9.779 4.203L9.35611 5.10918C9.92763 5.37589 10.5422 5.91784 11.1715 6.84893L12 6.289L12.8285 5.72907C12.0764 4.61616 11.2104 3.76745 10.2019 3.29682L9.779 4.203ZM12 6.289L12.8283 6.8493C13.4583 5.91789 14.0731 5.37577 14.6442 5.10905L14.221 4.203L13.7978 3.29696C12.7902 3.76757 11.9243 4.61612 11.1717 5.7287L12 6.289ZM14.221 4.203L14.6442 5.10905C15.3263 4.79045 15.9418 4.65 16.5 4.65V3.65V2.65C15.5982 2.65 14.6944 2.87822 13.7978 3.29696L14.221 4.203ZM16.5 3.65V4.65C17.5189 4.65 18.3288 4.98505 18.9969 5.65311L19.704 4.946L20.4111 4.23889C19.3512 3.17895 18.0251 2.65 16.5 2.65V3.65ZM19.704 4.946L18.9969 5.65311C19.6649 6.32116 20 7.13108 20 8.15H21H22C22 6.62492 21.4711 5.29884 20.4111 4.23889L19.704 4.946ZM21 8.15H20C20 9.52929 19.428 10.9199 18.1357 12.3386L18.875 13.012L19.6143 13.6854C21.1554 11.9935 22 10.1427 22 8.15H21ZM18.875 13.012L18.1357 12.3386C16.7422 13.8685 15.2145 15.3866 13.5517 16.8929L14.223 17.634L14.8943 18.3751C16.6009 16.8294 18.1744 15.2662 19.6143 13.6854L18.875 13.012ZM14.223 17.634L13.5529 16.8917L12.4109 17.9227L13.081 18.665L13.7511 19.4073L14.8931 18.3763L14.223 17.634ZM13.081 18.665L12.3739 17.9579C12.3352 17.9966 12.2918 18.0249 12.2327 18.0459L12.568 18.988L12.9033 19.9301C13.2376 19.8111 13.5361 19.6241 13.7881 19.3721L13.081 18.665ZM12.568 18.988L12.2327 18.0459C12.1348 18.0807 12.0512 18.0938 11.9776 18.094L11.981 19.094L11.9844 20.094C12.3001 20.0929 12.6078 20.0353 12.9033 19.9301L12.568 18.988Z" fill="white" mask="url(#path-1-inside-1_1139_24127)"/>
</svg>
