<svg width="24" height="24" viewBox="0 0 24 24" fill="none" xmlns="http://www.w3.org/2000/svg">
<path d="M11.98 19.094C11.786 19.094 11.5937 19.0587 11.403 18.988C11.2123 18.918 11.0447 18.8104 10.9 18.665L9.752 17.63C7.972 16.0134 6.402 14.441 5.042 12.913C3.68067 11.3857 3 9.79802 3 8.15002C3 6.87802 3.432 5.81002 4.296 4.94602C5.16 4.08202 6.228 3.65002 7.5 3.65002C8.22933 3.65002 8.989 3.83436 9.779 4.20302C10.569 4.57169 11.3093 5.26702 12 6.28902C12.6913 5.26702 13.4317 4.57169 14.221 4.20302C15.0103 3.83436 15.77 3.65002 16.5 3.65002C17.772 3.65002 18.84 4.08202 19.704 4.94602C20.568 5.81002 21 6.87802 21 8.15002C21 9.83602 20.2917 11.4567 18.875 13.012C17.4583 14.5674 15.9077 16.108 14.223 17.634L13.081 18.665C12.9357 18.8104 12.7647 18.918 12.568 18.988C12.3713 19.058 12.1757 19.0934 11.981 19.094" fill="#FCFAF9"/>
</svg>
