<svg width="36" height="36" viewBox="0 0 36 36" fill="none" xmlns="http://www.w3.org/2000/svg">
<path d="M18.0004 3C19.2973 3.00001 20.54 3.25334 21.681 3.71191C20.9555 4.44166 20.3809 5.32076 20.0033 6.29785C19.3679 6.10457 18.6953 6 18.0004 6C14.4949 6 11.5496 8.63612 11.1625 12.1201L10.7855 15.5195C10.7808 15.5616 10.7776 15.5867 10.7748 15.6113C10.5571 17.5073 9.94016 19.3356 8.96423 20.9756C8.95153 20.9969 8.9382 21.0183 8.91638 21.0547L8.04919 22.5C7.63895 23.1837 7.39177 23.5995 7.24548 23.9102C7.23788 23.9263 7.23141 23.9417 7.22497 23.9561C7.24085 23.9579 7.25762 23.962 7.27575 23.9639C7.61736 23.9982 8.10144 24 8.8988 24H27.1019C27.8993 24 28.3834 23.9982 28.725 23.9639C28.7427 23.9621 28.7592 23.9579 28.7748 23.9561C28.7684 23.9419 28.7628 23.9261 28.7552 23.9102C28.609 23.5995 28.3618 23.1837 27.9515 22.5L27.0843 21.0547C27.0625 21.0183 27.0492 20.9969 27.0365 20.9756C26.1809 19.5379 25.6012 17.9554 25.3246 16.3096C25.8635 16.4326 26.4241 16.5 27.0004 16.5C27.476 16.5 27.9409 16.4538 28.392 16.3691C28.6341 17.4491 29.0463 18.4863 29.6146 19.4414C29.624 19.4571 29.6337 19.4735 29.6566 19.5117L30.5238 20.957C30.9003 21.5845 31.2433 22.1523 31.4691 22.6318C31.6913 23.1036 31.9292 23.7431 31.8148 24.4678C31.7018 25.184 31.3328 25.8354 30.7767 26.3008C30.2142 26.7716 29.5436 26.897 29.0248 26.9492C28.4973 27.0023 27.8338 27 27.1019 27H8.8988C8.16696 27 7.50343 27.0023 6.97595 26.9492C6.45715 26.897 5.78657 26.7716 5.22399 26.3008C4.66794 25.8354 4.29896 25.184 4.18591 24.4678C4.07156 23.7431 4.30943 23.1036 4.53161 22.6318C4.75747 22.1523 5.10043 21.5845 5.47692 20.957L6.34411 19.5117C6.36706 19.4735 6.37677 19.4571 6.3861 19.4414C7.14523 18.1658 7.62507 16.7433 7.79431 15.2686C7.79638 15.2505 7.79917 15.2316 7.80407 15.1875L8.18103 11.7881C8.73711 6.78497 12.9664 3 18.0004 3ZM25.475 6.41992C26.7431 7.88573 27.5914 9.73394 27.8197 11.7881L27.8295 11.8809C27.5659 11.9566 27.2883 12 27.0004 12C25.9698 12 25.061 11.4801 24.5209 10.6885C24.399 10.3251 24.2481 9.97604 24.0707 9.64355C24.0253 9.43616 24.0004 9.22099 24.0004 9C24.0004 7.90075 24.5932 6.94237 25.475 6.41992Z" fill="#111111"/>
<path d="M13.6533 26.497C13.9097 27.9323 14.4747 29.2006 15.2606 30.1051C16.0465 31.0097 17.0094 31.5 18 31.5C18.9906 31.5 19.9535 31.0097 20.7394 30.1051C21.5253 29.2006 22.0903 27.9323 22.3467 26.497" stroke="#111111" stroke-width="3" stroke-linecap="round"/>
<circle cx="27" cy="9" r="3.75" fill="#111111" stroke="#111111" stroke-width="1.5"/>
</svg>
