<svg width="36" height="36" viewBox="0 0 36 36" fill="none" xmlns="http://www.w3.org/2000/svg">
<path d="M16.8184 4.875C17.573 4.55158 18.427 4.55158 19.1816 4.875L28.0537 8.67676C29.2823 9.20351 30.0144 10.4801 29.8486 11.8066L28.9287 19.1621C28.5985 21.8037 27.2775 24.2214 25.2324 25.9258L19.9209 30.3525C18.8084 31.2796 17.1916 31.2796 16.0791 30.3525L10.7676 25.9258C8.72253 24.2214 7.40153 21.8037 7.07129 19.1621L6.15137 11.8066C5.98556 10.4801 6.71766 9.20351 7.94629 8.67676L16.8184 4.875Z" stroke="#111111" stroke-width="3" stroke-linecap="round"/>
<path d="M13.5 18L17.3531 21.8531C17.6878 22.1878 18.2449 22.1326 18.5075 21.7388L24 13.5" stroke="#111111" stroke-width="3" stroke-linecap="round"/>
</svg>
