<svg width="36" height="36" viewBox="0 0 36 36" fill="none" xmlns="http://www.w3.org/2000/svg">
<path d="M20.5914 5.16627L23.2311 10.4893C23.5911 11.2303 24.5509 11.941 25.3609 12.0771L30.1454 12.8786C33.2051 13.3928 33.925 15.6309 31.7202 17.8387L28.0007 21.589C27.3707 22.2241 27.0258 23.449 27.2207 24.3262L28.2856 28.9687C29.1255 32.6434 27.1906 34.065 23.9661 32.1444L19.4815 29.4678C18.6717 28.9839 17.3368 28.9839 16.5118 29.4678L12.0274 32.1444C8.81775 34.065 6.86797 32.6283 7.70788 28.9687L8.77276 24.3262C8.96773 23.449 8.62278 22.2241 7.99284 21.589L4.27326 17.8387C2.0835 15.6309 2.78842 13.3928 5.84808 12.8786L10.6326 12.0771C11.4275 11.941 12.3874 11.2303 12.7473 10.4893L15.387 5.16627C16.8268 2.27791 19.1665 2.27791 20.5914 5.16627Z" stroke="#1C1B1C" stroke-width="2.25" stroke-linecap="round" stroke-linejoin="round"/>
</svg>
