<svg width="24" height="25" viewBox="0 0 24 25" fill="none" xmlns="http://www.w3.org/2000/svg">
<g clip-path="url(#clip0_756_5782)">
<path d="M23.9873 12.527C23.9873 11.5194 23.9057 10.7841 23.729 10.0216H12.239V14.5694H18.9833C18.8474 15.6995 18.1132 17.4016 16.4814 18.5453L16.4585 18.6975L20.0915 21.5158L20.3431 21.5409C22.6547 19.4031 23.9873 16.2578 23.9873 12.527Z" fill="#4285F4"/>
<path d="M12.239 24.5092C15.5431 24.5092 18.317 23.4199 20.3431 21.5409L16.4814 18.5453C15.448 19.2669 14.061 19.7707 12.239 19.7707C9.00279 19.7707 6.2561 17.6331 5.27698 14.6783L5.13347 14.6905L1.35592 17.618L1.30652 17.7556C3.31894 21.7587 7.4526 24.5092 12.239 24.5092Z" fill="#34A853"/>
<path d="M5.27696 14.6783C5.01861 13.9158 4.86909 13.0987 4.86909 12.2546C4.86909 11.4103 5.01861 10.5934 5.26337 9.83088L5.25652 9.66849L1.43164 6.69397L1.30649 6.75358C0.477079 8.41477 0.00115967 10.2802 0.00115967 12.2546C0.00115967 14.2289 0.477079 16.0943 1.30649 17.7555L5.27696 14.6783Z" fill="#FBBC05"/>
<path d="M12.239 4.73841C14.5369 4.73841 16.087 5.73238 16.9709 6.56303L20.4247 3.18619C18.3035 1.21185 15.5431 0 12.239 0C7.4526 0 3.31894 2.75045 1.30652 6.75358L5.26339 9.83088C6.2561 6.87618 9.00279 4.73841 12.239 4.73841Z" fill="#EB4335"/>
</g>
<defs>
<clipPath id="clip0_756_5782">
<rect width="24" height="24.5936" fill="white"/>
</clipPath>
</defs>
</svg>
